<svg width="42" height="24" viewBox="0 0 42 24" fill="none" xmlns="http://www.w3.org/2000/svg">
<path fill-rule="evenodd" clip-rule="evenodd" d="M15.6364 0C15.6139 0 15.5928 0.00978225 15.5777 0.0263382C12.2001 3.86192 8.8239 7.89555 5.48613 11.8833C3.96414 13.7016 2.45011 15.5105 0.947633 17.2866C0.947633 17.2866 0.737675 17.5297 0.565344 17.8601C0.351622 18.2687 0.283894 18.5027 0.283894 18.5027C0.283014 18.5049 0.282134 18.5071 0.281255 18.5095C0.280629 18.5111 0.280004 18.5129 0.279379 18.5147C-0.409196 20.3909 0.222185 22.7357 1.65578 23.9955L1.66706 24H10.0519L9.56197 23.276C8.63182 21.8771 8.44515 19.9189 9.3279 18.3913C9.36555 18.3266 9.43252 18.2183 9.48292 18.1385C9.48592 18.1332 9.48967 18.1287 9.49275 18.1235L9.61612 17.9503C13.7667 12.8446 18.0076 7.84747 22.317 2.76975L22.3177 2.7689C23.0297 1.92994 23.7436 1.08879 24.4592 0.244576L24.6639 0H15.6364ZM40.4178 18.5076C40.4172 18.506 40.4166 18.5044 40.4161 18.5027C40.4288 18.508 40.3129 18.2084 40.1346 17.8601C40.0074 17.611 39.7523 17.2866 39.7523 17.2866C35.0136 11.6839 30.1589 5.75618 25.4751 0.0120432L20.9614 5.38744L20.7868 5.60567C24.2703 9.71602 27.7064 13.7978 31.0823 17.9503L31.211 18.131C31.2622 18.2115 31.3321 18.3244 31.3705 18.3913C32.2533 19.9182 32.0674 21.8771 31.1365 23.276L30.6466 24H39.0313L39.0427 23.9955C40.4778 22.7357 41.1091 20.3909 40.4206 18.5147C40.4197 18.5124 40.4187 18.5101 40.4178 18.5076ZM19.2451 16.9448C19.6585 17.5318 20.0668 18.1114 20.3518 18.7194L20.3587 18.7315L20.3662 18.7187C20.6512 18.1107 21.0594 17.5312 21.4726 16.9444C22.0717 16.0938 22.6814 15.228 22.9429 14.2381C23.6338 12.182 22.3911 10.454 21.2156 8.81948C20.9175 8.40495 20.6237 7.99643 20.3669 7.59015L20.3594 7.57732L20.3511 7.59015C20.0944 7.99605 19.8007 8.4042 19.5028 8.81835C18.3268 10.4531 17.0833 12.1817 17.7744 14.2381C18.0358 15.228 18.6458 16.094 19.2451 16.9448ZM19.8341 18.7871C19.8341 18.7871 20.1923 19.4562 20.3556 19.837C20.5189 19.457 20.8756 18.7871 20.8756 18.7871C20.8756 18.7871 22.1896 15.6897 26.2819 15.7996C27.0863 15.8208 27.5107 15.8383 27.7669 15.8488C27.892 15.854 27.9769 15.8575 28.0465 15.859C28.0746 15.8596 28.1017 15.8603 28.1283 15.8609C28.3026 15.8648 28.4488 15.8681 28.6245 15.8628L28.6343 15.8906C28.6524 15.9456 28.6968 16.1232 28.7457 16.6928C28.8255 17.6275 28.6907 18.8429 27.3166 20.2411C26.2186 21.3593 25.0921 21.4278 23.4087 21.5272C21.726 21.6265 21.3324 22.057 20.993 22.4324C20.6995 22.7576 20.3902 23.6215 20.3587 23.7502L20.3548 23.7599L20.3511 23.7502C20.3195 23.6222 20.0102 22.7576 19.7167 22.4324C19.378 22.0562 18.9838 21.6265 17.3011 21.5272C15.6184 21.4278 14.4919 21.3586 13.3931 20.2411C12.019 18.8429 11.8843 17.6275 11.9641 16.6928C12.013 16.1232 12.0574 15.9456 12.0754 15.8906L12.0852 15.8628C12.2609 15.8681 12.4071 15.8648 12.5814 15.8609C12.6079 15.8603 12.6352 15.8596 12.6631 15.859C12.7385 15.8577 12.8316 15.8539 12.9735 15.8482C13.2326 15.8377 13.6549 15.8205 14.4279 15.7996C18.5202 15.6897 19.8341 18.7871 19.8341 18.7871ZM41.1701 23.711H41.2747L41.0527 23.3784C41.1814 23.3739 41.2815 23.3204 41.2807 23.1775C41.28 23.1165 41.2522 23.0525 41.1979 23.0224C41.1438 22.9901 41.0813 22.9878 41.0203 22.9885L40.7058 22.9909L40.7118 23.7148L40.7998 23.714L40.7976 23.3799L40.9601 23.3784L41.1701 23.711ZM40.9606 23.31C40.9506 23.3099 40.9408 23.3099 40.9315 23.3099L40.7961 23.3122L40.7938 23.0564L41.0008 23.054C41.0903 23.0533 41.1889 23.0653 41.1904 23.1775C41.1911 23.3116 41.0611 23.3107 40.9606 23.31ZM40.9451 22.7034C40.5847 22.7072 40.2972 22.9991 40.3002 23.3551C40.3024 23.7148 40.5944 24.003 40.9549 23.9993C41.3131 23.9963 41.5983 23.705 41.596 23.3453C41.5938 22.9885 41.3026 22.7012 40.9451 22.7034ZM40.9451 22.7816C41.2589 22.7794 41.5147 23.0322 41.5178 23.3453C41.5208 23.6629 41.2679 23.9194 40.9541 23.9217C40.6396 23.924 40.3822 23.6719 40.3792 23.3551C40.3769 23.0413 40.6291 22.7846 40.9451 22.7816Z" fill="#1F1E1E"/>
</svg>
