<svg width="201" height="64" viewBox="0 0 201 64" fill="#1f1e1e" xmlns="http://www.w3.org/2000/svg" >
<path fill-rule="evenodd" clip-rule="evenodd" d="M32 0C49.6731 0 64 14.3269 64 32C64 49.6731 49.6731 64 32 64C14.3268 64 0 49.6731 0 32C0 14.3269 14.3268 0 32 0ZM29.8953 34.385L29.906 34.4001L29.9034 34.3976C30.6867 35.5 31.4571 36.5894 31.9958 37.7307L32.0088 37.754L32.0218 37.7307C32.5605 36.5894 33.3309 35.5 34.1116 34.3976C35.2437 32.7983 36.394 31.173 36.8885 29.3123C38.1935 25.4532 35.8506 22.2112 33.6331 19.1427L33.625 19.1316L33.6185 19.1226C33.0585 18.3493 32.5041 17.5835 32.0218 16.8231L32.0088 16.7998L31.9932 16.8231C31.5091 17.5865 30.9548 18.3526 30.3926 19.129C28.1701 22.2008 25.82 25.4512 27.1265 29.3149C27.6195 31.1697 28.7667 32.7905 29.8953 34.385ZM32.0036 39.8321C31.6939 39.1178 31.0172 37.8601 31.0172 37.8601H31.0094C31.0094 37.8601 28.5266 32.04 20.7946 32.247C19.332 32.2859 18.5356 32.3168 18.0463 32.3375C17.9641 32.3407 17.8907 32.3439 17.8244 32.3468C17.6743 32.3533 17.56 32.3582 17.4608 32.3582C17.4087 32.3608 17.3567 32.3608 17.3072 32.3608C17.2563 32.3616 17.2066 32.3625 17.1578 32.3633C16.8923 32.368 16.6517 32.3722 16.3703 32.3635L16.3521 32.4151C16.3183 32.5161 16.235 32.85 16.1413 33.9214C15.9929 35.6786 16.2454 37.961 18.8427 40.5877C20.9169 42.6891 23.0458 42.8186 26.226 43.0049C29.4063 43.1912 30.1506 43.9986 30.7908 44.7051C31.3452 45.3158 31.9307 46.941 31.9906 47.1817L31.9984 47.1999L32.0062 47.1817C32.066 46.9384 32.6516 45.3158 33.206 44.7051C33.8488 44.0012 34.5905 43.1912 37.7708 43.0049C40.9484 42.8186 43.0799 42.6891 45.1541 40.5877C47.7514 37.961 48.0064 35.6786 47.8555 33.9214C47.7618 32.8526 47.6785 32.5187 47.6447 32.4151L47.6265 32.3635C47.296 32.3738 47.0201 32.3686 46.6896 32.3608C46.6401 32.3582 46.5881 32.3582 46.536 32.3582C46.4059 32.3556 46.2445 32.3505 46.0077 32.3402C45.5236 32.3195 44.7221 32.2859 43.2022 32.247C35.4701 32.04 32.9873 37.8601 32.9873 37.8601C32.9873 37.8601 32.3133 39.1178 32.0036 39.8321Z M156.495 36.7681V16.8H151.079V36.7281C151.079 41.1281 153.343 43.336 157.879 43.336H161.255V38.808H158.759C157.943 38.808 157.351 38.6561 156.991 38.3441C156.655 38.0081 156.495 37.4881 156.495 36.7681ZM88.2148 22.712C87.0148 23.352 86.0628 24.16 85.3748 25.128V22.056H79.9988V53.472H85.3748V40.3041C86.1188 41.2801 87.0788 42.0801 88.2548 42.7201C89.4548 43.3601 90.8388 43.68 92.3988 43.68C94.2148 43.68 95.8548 43.2161 97.3108 42.2961C98.7988 41.3761 99.9588 40.08 100.807 38.416C101.679 36.728 102.111 34.7921 102.111 32.6161C102.111 30.4401 101.679 28.536 100.807 26.896C99.9588 25.232 98.7988 23.952 97.3108 23.056C95.8548 22.16 94.2148 21.712 92.3988 21.712C90.8388 21.712 89.4388 22.048 88.2148 22.712ZM95.8148 29.32C96.3508 30.24 96.6228 31.3441 96.6228 32.6241C96.6228 33.9041 96.3508 35.056 95.8148 36C95.3028 36.944 94.6148 37.6801 93.7428 38.1921C92.8948 38.7041 91.9748 38.96 90.9748 38.96C89.9748 38.96 89.0788 38.72 88.2068 38.232C87.3588 37.72 86.6708 36.9921 86.1348 36.0401C85.6228 35.0961 85.3668 33.976 85.3668 32.696C85.3668 31.416 85.6228 30.304 86.1348 29.352C86.6708 28.408 87.3668 27.6881 88.2068 27.2001C89.0788 26.6881 89.9988 26.432 90.9748 26.432C91.9508 26.432 92.8948 26.672 93.7428 27.16C94.6148 27.648 95.3028 28.36 95.8148 29.312V29.32ZM104.703 26.904C103.855 28.568 103.439 30.4721 103.439 32.6241C103.439 34.7761 103.863 36.736 104.703 38.424C105.575 40.088 106.735 41.3841 108.199 42.3041C109.687 43.2241 111.319 43.688 113.111 43.688C114.695 43.688 116.095 43.3681 117.295 42.7281C118.527 42.0641 119.487 41.232 120.175 40.232V43.3441H125.591V22.064H120.175V25.0961C119.455 24.1201 118.495 23.32 117.295 22.68C116.119 22.04 114.735 21.72 113.151 21.72C111.335 21.72 109.679 22.168 108.199 23.064C106.743 23.96 105.575 25.24 104.703 26.904ZM119.407 29.3601C119.919 30.2801 120.175 31.392 120.175 32.704C120.175 34.016 119.919 35.1361 119.407 36.0801C118.895 37.0001 118.207 37.72 117.335 38.232C116.463 38.72 115.527 38.96 114.535 38.96C113.543 38.96 112.639 38.7041 111.767 38.1921C110.919 37.6801 110.231 36.952 109.695 36C109.183 35.024 108.927 33.9041 108.927 32.6241C108.927 31.3441 109.183 30.24 109.695 29.32C110.231 28.376 110.927 27.656 111.767 27.168C112.607 26.68 113.535 26.4401 114.535 26.4401C115.535 26.4401 116.471 26.696 117.335 27.208C118.207 27.696 118.895 28.4081 119.407 29.3601ZM140.231 21.76C142.767 21.76 144.815 22.5681 146.375 24.1761C147.935 25.7601 148.719 27.9921 148.719 30.8561V43.336H143.343V31.584C143.343 29.896 142.919 28.6001 142.079 27.7041C141.231 26.7841 140.079 26.32 138.623 26.32C137.167 26.32 135.959 26.7841 135.087 27.7041C134.239 28.6001 133.823 29.896 133.823 31.584V43.336H128.447V22.064H133.823V24.712C134.543 23.792 135.447 23.072 136.551 22.56C137.679 22.024 138.903 21.7521 140.239 21.7521L140.231 21.76ZM169.695 25.368C170.383 24.24 171.279 23.36 172.383 22.72C173.511 22.08 174.791 21.76 176.223 21.76V27.4081H174.799C173.111 27.4081 171.831 27.808 170.959 28.6C170.111 29.392 169.695 30.776 169.695 32.744V43.3441H164.319V22.064H169.695V25.368ZM187.023 53.4001L200.199 22.064H194.479L188.911 36.9281L183.423 22.064H177.391L185.911 42.8L181.303 53.4001H187.023ZM157.231 24.0401C156.919 24.7521 156.839 25.6241 156.847 26.4881V27.944H158.591C159.471 27.872 160.367 27.8 161.071 27.424C162.639 26.752 162.599 24.992 162.567 23.328C162.559 22.904 162.551 22.4881 162.567 22.0961L162.559 22.088C162.159 22.136 161.735 22.1761 161.303 22.2001C159.591 22.3281 157.783 22.456 157.247 24.032L157.231 24.0401Z" />
</svg>
